<svg width="49" height="48" viewBox="0 0 49 48" fill="none" xmlns="http://www.w3.org/2000/svg">
<path d="M24.8333 4.3245C31.2415 4.3245 32.0005 4.34888 34.5312 4.46419C36.8712 4.57106 38.1421 4.962 38.9879 5.29069C40.108 5.72606 40.9075 6.24619 41.7473 7.086C42.5873 7.92581 43.1073 8.72531 43.5426 9.84544C43.8713 10.6912 44.2623 11.9621 44.3691 14.3019C44.4845 16.8328 44.5088 17.5918 44.5088 24C44.5088 30.4084 44.4845 31.1674 44.3691 33.6981C44.2623 36.0381 43.8713 37.3088 43.5426 38.1546C43.1073 39.2747 42.5871 40.0744 41.7473 40.9142C40.9075 41.754 40.108 42.2741 38.9879 42.7093C38.1421 43.038 36.8712 43.4291 34.5312 43.5358C32.0009 43.6513 31.2419 43.6757 24.8333 43.6757C18.4246 43.6757 17.6656 43.6513 15.1353 43.5358C12.7953 43.4289 11.5246 43.038 10.6788 42.7093C9.55864 42.2741 8.75895 41.754 7.91914 40.9142C7.07933 40.0742 6.5592 39.2747 6.12402 38.1546C5.79533 37.3089 5.4042 36.0381 5.29752 33.6981C5.18202 31.1674 5.15764 30.4084 5.15764 24C5.15764 17.5918 5.18202 16.8328 5.29752 14.3021C5.40439 11.9621 5.79533 10.6912 6.12402 9.84544C6.5592 8.72531 7.07933 7.92581 7.91914 7.086C8.75914 6.246 9.55864 5.72606 10.6788 5.29069C11.5244 4.962 12.7953 4.57106 15.1353 4.46419C17.666 4.34888 18.425 4.3245 24.8333 4.3245ZM24.8333 0C18.3153 0 17.498 0.0275625 14.9382 0.144375C12.3835 0.261 10.6388 0.66675 9.11239 1.26C7.53402 1.87331 6.19564 2.694 4.86139 4.02825C3.52714 5.3625 2.70664 6.70087 2.09333 8.27906C1.49989 9.80569 1.09433 11.5504 0.977703 14.1049C0.860891 16.6646 0.833328 17.4819 0.833328 24C0.833328 30.5181 0.860891 31.3354 0.977703 33.8951C1.09433 36.4498 1.49989 38.1945 2.09333 39.7209C2.70645 41.2991 3.52714 42.6377 4.86139 43.9719C6.19564 45.3062 7.53402 46.1267 9.11239 46.74C10.639 47.3334 12.3835 47.739 14.938 47.8556C17.498 47.9724 18.3153 48 24.8333 48C31.3514 48 32.1687 47.9724 34.7285 47.8556C37.283 47.739 39.0276 47.3334 40.5541 46.74C42.1325 46.1269 43.4708 45.3062 44.8051 43.9719C46.1393 42.6377 46.96 41.2993 47.5733 39.7209C48.1666 38.1943 48.5723 36.4498 48.689 33.8953C48.8058 31.3354 48.8333 30.5181 48.8333 24C48.8333 17.4819 48.8058 16.6646 48.689 14.1049C48.5723 11.5504 48.1666 9.80569 47.5733 8.27925C46.96 6.70087 46.1393 5.3625 44.8051 4.02825C43.4708 2.694 42.1325 1.87312 40.5543 1.26C39.0276 0.66675 37.283 0.261 34.7285 0.144375C32.1687 0.0275625 31.3514 0 24.8333 0ZM24.8333 11.6756C18.0267 11.6756 12.509 17.1938 12.509 24C12.509 30.8066 18.0267 36.3244 24.8333 36.3244C31.6398 36.3244 37.1577 30.8066 37.1577 24C37.1577 17.1936 31.6398 11.6756 24.8333 11.6756ZM24.8333 32.0001C20.4151 32.0001 16.8333 28.4182 16.8333 24C16.8333 19.5818 20.4151 15.9999 24.8333 15.9999C29.2516 15.9999 32.8334 19.5818 32.8334 24C32.8334 28.4182 29.2516 32.0001 24.8333 32.0001ZM40.5245 11.1887C40.5245 12.7794 39.2352 14.0687 37.6445 14.0687C36.0539 14.0687 34.7645 12.7794 34.7645 11.1887C34.7645 9.59813 36.0539 8.30869 37.6445 8.30869C39.2352 8.30869 40.5245 9.59813 40.5245 11.1887Z" fill="white"/>
</svg>
