<svg width="37" height="36" viewBox="0 0 37 36" fill="none" xmlns="http://www.w3.org/2000/svg">
<path d="M32.5 0C33.5609 0 34.5783 0.421427 35.3284 1.17157C36.0786 1.92172 36.5 2.93913 36.5 4V32C36.5 33.0609 36.0786 34.0783 35.3284 34.8284C34.5783 35.5786 33.5609 36 32.5 36H4.49998C3.43912 36 2.4217 35.5786 1.67156 34.8284C0.921412 34.0783 0.499985 33.0609 0.499985 32V4C0.499985 2.93913 0.921412 1.92172 1.67156 1.17157C2.4217 0.421427 3.43912 0 4.49998 0H32.5ZM31.5 31V20.4C31.5 18.6708 30.8131 17.0124 29.5903 15.7897C28.3676 14.5669 26.7092 13.88 24.98 13.88C23.28 13.88 21.3 14.92 20.34 16.48V14.26H14.76V31H20.34V21.14C20.34 19.6 21.58 18.34 23.12 18.34C23.8626 18.34 24.5748 18.635 25.0999 19.1601C25.625 19.6852 25.92 20.3974 25.92 21.14V31H31.5ZM8.25998 11.12C9.15111 11.12 10.0057 10.766 10.6359 10.1359C11.266 9.50576 11.62 8.65113 11.62 7.76C11.62 5.9 10.12 4.38 8.25998 4.38C7.36355 4.38 6.50384 4.73611 5.86996 5.36998C5.23609 6.00385 4.87998 6.86357 4.87998 7.76C4.87998 9.62 6.39998 11.12 8.25998 11.12ZM11.04 31V14.26H5.49998V31H11.04Z" fill="white"/>
</svg>
