<svg width="75" height="75" viewBox="0 0 75 75" fill="none" xmlns="http://www.w3.org/2000/svg">
<g opacity="0.75">
<path opacity="0.8" d="M14.5838 41.2499H9.37502C8.9944 41.2494 8.62296 41.133 8.31007 40.9163C7.99717 40.6996 7.75765 40.3927 7.62334 40.0366C7.48902 39.6805 7.46628 39.2919 7.55812 38.9225C7.64997 38.5531 7.85206 38.2205 8.13752 37.9687L40.0125 9.8437C40.3547 9.5431 40.7946 9.37732 41.25 9.37732C41.7055 9.37732 42.1454 9.5431 42.4875 9.8437L74.3625 37.9687C74.648 38.2205 74.8501 38.5531 74.9419 38.9225C75.0338 39.2919 75.011 39.6805 74.8767 40.0366C74.7424 40.3927 74.5029 40.6996 74.19 40.9163C73.8771 41.133 73.5056 41.2494 73.125 41.2499H67.9163V67.4999C67.9163 67.9972 67.7187 68.4741 67.3671 68.8258C67.0155 69.1774 66.5386 69.3749 66.0413 69.3749H16.4625C15.9652 69.3749 15.4883 69.1774 15.1367 68.8258C14.7851 68.4741 14.5875 67.9972 14.5875 67.4999V41.2499H14.5838Z" fill="#E6B300"/>
<path fill-rule="evenodd" clip-rule="evenodd" d="M3.75005 37.4999H8.9588V63.7499C8.9588 64.2472 9.15635 64.7241 9.50798 65.0758C9.85961 65.4274 10.3365 65.6249 10.8338 65.6249H60.4126C60.9098 65.6249 61.3867 65.4274 61.7384 65.0758C62.09 64.7241 62.2876 64.2472 62.2876 63.7499V37.4999H67.5001C67.8807 37.4994 68.2521 37.383 68.565 37.1663C68.8779 36.9496 69.1174 36.6427 69.2517 36.2866C69.386 35.9305 69.4088 35.5419 69.3169 35.1725C69.2251 34.8031 69.023 34.4705 68.7375 34.2187L36.8626 6.0937C36.5204 5.7931 36.0805 5.62732 35.6251 5.62732C35.1696 5.62732 34.7297 5.7931 34.3876 6.0937L2.51255 34.2187C2.22709 34.4705 2.025 34.8031 1.93315 35.1725C1.84131 35.5419 1.86405 35.9305 1.99837 36.2866C2.13268 36.6427 2.3722 36.9496 2.6851 37.1663C2.99799 37.383 3.36943 37.4994 3.75005 37.4999ZM10.8338 33.7499H8.70755L35.6251 10.0012L62.5425 33.7499H60.4163C59.919 33.7499 59.4421 33.9475 59.0905 34.2991C58.7388 34.6507 58.5413 35.1277 58.5413 35.6249V61.8749H12.7126V35.6249C12.7126 35.1277 12.515 34.6507 12.1634 34.2991C11.8117 33.9475 11.3348 33.7499 10.8376 33.7499H10.8338Z" fill="#5B5B58"/>
<path fill-rule="evenodd" clip-rule="evenodd" d="M40.155 43.125H30.78C29.7854 43.125 28.8316 43.5201 28.1283 44.2234C27.4251 44.9266 27.03 45.8804 27.03 46.875V61.875C27.03 62.8696 27.4251 63.8234 28.1283 64.5267C28.8316 65.2299 29.7854 65.625 30.78 65.625H40.155C41.1496 65.625 42.1034 65.2299 42.8066 64.5267C43.5099 63.8234 43.905 62.8696 43.905 61.875V46.875C43.905 45.8804 43.5099 44.9266 42.8066 44.2234C42.1034 43.5201 41.1496 43.125 40.155 43.125ZM30.78 61.875V46.875H40.155V61.875H30.78Z" fill="#5B5B58"/>
</g>
</svg>
