<svg width="75" height="75" viewBox="0 0 75 75" fill="none" xmlns="http://www.w3.org/2000/svg">
<path opacity="0.16" d="M59.375 34.375C59.375 41.0054 56.7411 47.3643 52.0527 52.0527C47.3643 56.7411 41.0054 59.375 34.375 59.375C27.7446 59.375 21.3857 56.7411 16.6973 52.0527C12.0089 47.3643 9.375 41.0054 9.375 34.375C9.375 27.7446 12.0089 21.3857 16.6973 16.6973C21.3857 12.0089 27.7446 9.375 34.375 9.375C41.0054 9.375 47.3643 12.0089 52.0527 16.6973C56.7411 21.3857 59.375 27.7446 59.375 34.375Z" fill="#E6B300"/>
<path d="M65.6249 65.625L52.053 52.0532M52.053 52.0532C54.3746 49.7316 56.2161 46.9756 57.4725 43.9424C58.7289 40.9091 59.3756 37.6582 59.3756 34.375C59.3756 31.0919 58.7289 27.8409 57.4725 24.8077C56.2161 21.7745 54.3746 19.0184 52.053 16.6969C49.7315 14.3754 46.9755 12.5339 43.9422 11.2775C40.909 10.0211 37.658 9.37439 34.3749 9.37439C31.0918 9.37439 27.8408 10.0211 24.8076 11.2775C21.7744 12.5339 19.0183 14.3754 16.6968 16.6969C12.0083 21.3854 9.37427 27.7445 9.37427 34.375C9.37427 41.0056 12.0083 47.3646 16.6968 52.0532C21.3853 56.7417 27.7443 59.3757 34.3749 59.3757C41.0055 59.3757 47.3645 56.7417 52.053 52.0532Z" stroke="#5B5B58" stroke-width="6.25" stroke-linecap="round" stroke-linejoin="round"/>
</svg>
