<svg width="69" height="69" viewBox="0 0 69 69" fill="none" xmlns="http://www.w3.org/2000/svg">
<path d="M17.5373 0.25C18.9942 0.25 20.1722 1.33045 20.1722 2.66185V7.53436C22.5074 7.49254 25.1284 7.49254 28.077 7.49254H42.1298C45.0784 7.49254 47.6959 7.49254 50.0346 7.53436V2.66185C50.0346 1.33045 51.2126 0.25 52.6695 0.25C54.1264 0.25 55.3044 1.33045 55.3044 2.66185V7.74348C60.3582 8.11293 63.6797 9.02608 66.1194 11.2567C68.5592 13.4908 69.5525 16.53 69.9568 21.162V24.6474H0.25V21.162C0.654299 16.53 1.64762 13.4943 4.08736 11.2567C6.5271 9.02608 9.84514 8.11293 14.9024 7.74348V2.66185C14.9024 1.33045 16.0839 0.25 17.5373 0.25Z" fill="#5B5B58"/>
<path opacity="0.5" d="M69.9568 42.074V35.1034C69.9568 32.1792 69.9115 26.9651 69.8662 24.6473H0.270961C0.225652 26.9651 0.270961 32.1792 0.270961 35.1034V42.074C0.270961 55.2173 0.270962 61.7906 4.34881 65.8719C8.43711 69.9568 15.007 69.9568 28.1467 69.9568H42.0881C55.2278 69.9568 61.7942 69.9568 65.879 65.8719C69.9568 61.7906 69.9568 55.2173 69.9568 42.074Z" fill="#E6B300"/>
<path fill-rule="evenodd" clip-rule="evenodd" d="M58.6294 50.7875C57.5996 50.7875 56.5799 50.9903 55.6284 51.3844C54.677 51.7785 53.8125 52.3561 53.0843 53.0843C52.3561 53.8125 51.7785 54.677 51.3844 55.6285C50.9903 56.5799 50.7874 57.5997 50.7874 58.6295C50.7874 59.6593 50.9903 60.6791 51.3844 61.6305C51.7785 62.5819 52.3561 63.4464 53.0843 64.1746C53.8125 64.9028 54.677 65.4805 55.6284 65.8746C56.5799 66.2687 57.5996 66.4715 58.6294 66.4715C60.7093 66.4715 62.7039 65.6453 64.1746 64.1746C65.6452 62.704 66.4715 60.7093 66.4715 58.6295C66.4715 56.5497 65.6452 54.555 64.1746 53.0843C62.7039 51.6137 60.7093 50.7875 58.6294 50.7875ZM45.5594 58.6295C45.56 56.5917 46.0372 54.5822 46.9527 52.7617C47.8682 50.9411 49.1967 49.3598 50.8322 48.1441C52.4676 46.9284 54.3647 46.1119 56.3719 45.7599C58.3791 45.4079 60.4407 45.5302 62.3923 46.1168C64.3438 46.7035 66.1311 47.7384 67.6115 49.1388C69.0918 50.5393 70.2242 52.2664 70.9182 54.1824C71.6122 56.0984 71.8485 58.1502 71.6084 60.1738C71.3682 62.1974 70.6582 64.1368 69.5351 65.8372L74.418 70.7236C74.6749 70.9629 74.8808 71.2515 75.0237 71.5722C75.1666 71.8928 75.2434 72.239 75.2496 72.5899C75.2558 72.9409 75.1912 73.2896 75.0598 73.615C74.9283 73.9405 74.7326 74.2362 74.4844 74.4844C74.2362 74.7326 73.9405 74.9283 73.615 75.0598C73.2895 75.1913 72.9409 75.2558 72.5899 75.2496C72.2389 75.2435 71.8928 75.1666 71.5721 75.0238C71.2515 74.8809 70.9629 74.6749 70.7236 74.4181L65.8371 69.5351C63.8671 70.8375 61.581 71.5817 59.2218 71.6887C56.8627 71.7958 54.5186 71.2616 52.4387 70.143C50.3589 69.0244 48.6209 67.3632 47.4096 65.3359C46.1983 63.3087 45.5589 60.9911 45.5594 58.6295Z" fill="#5B5B58"/>
</svg>
