<svg width="49" height="40" viewBox="0 0 49 40" fill="none" xmlns="http://www.w3.org/2000/svg">
<path d="M15.2447 40.0001C33.3587 40.0001 43.2677 24.9911 43.2677 11.9981C43.2677 11.5781 43.2677 11.1521 43.2497 10.7321C45.1788 9.33558 46.8438 7.60658 48.1667 5.62613C46.3646 6.42068 44.4549 6.94434 42.4997 7.18013C44.5593 5.94904 46.1018 4.01203 46.8407 1.72913C44.9056 2.8755 42.7877 3.68025 40.5797 4.10813C39.0952 2.5272 37.1309 1.47988 34.9909 1.1284C32.851 0.776918 30.6548 1.14089 28.7427 2.16394C26.8305 3.18699 25.3091 4.81201 24.414 6.78731C23.5189 8.7626 23.3002 10.9779 23.7917 13.0901C19.8759 12.8938 16.0451 11.8765 12.5478 10.1044C9.05046 8.33218 5.96471 5.84466 3.49066 2.80313C2.23468 4.97238 1.85138 7.53833 2.41859 9.97992C2.98581 12.4215 4.46102 14.5557 6.54466 15.9491C4.98328 15.8961 3.45622 15.4768 2.08666 14.7251V14.8601C2.08935 17.1326 2.87658 19.3344 4.31528 21.0934C5.75398 22.8524 7.7559 24.0607 9.98266 24.5141C9.13745 24.747 8.26435 24.863 7.38766 24.8591C6.76961 24.861 6.1528 24.8037 5.54566 24.6881C6.17502 26.6443 7.40048 28.3546 9.0504 29.5796C10.7003 30.8045 12.6921 31.4827 14.7467 31.5191C11.2563 34.2605 6.94486 35.7473 2.50666 35.7401C1.72462 35.7434 0.943126 35.6983 0.166656 35.6051C4.6712 38.4769 9.90255 40.0018 15.2447 40.0001Z" fill="white"/>
</svg>
