<svg width="116" height="44" viewBox="0 0 116 44" fill="none" xmlns="http://www.w3.org/2000/svg">
<path d="M12.1995 17.4351C-0.981945 28.5921 61.2661 22.4408 105.735 18.446" stroke="url(#paint0_linear_7_2)" stroke-width="0.8" stroke-linecap="round"/>
<path d="M22.332 23.08C22.332 20.8 22.232 19.1333 22.032 18.08C21.832 17.0133 21.452 16.38 20.892 16.18L20.972 15.9C21.3853 15.9533 22.0587 15.98 22.992 15.98C23.9253 15.98 24.7853 15.9267 25.572 15.82L25.632 16.28C24.6853 16.5067 24.0253 16.64 23.652 16.68C23.4787 17.9867 23.392 19.7267 23.392 21.9V23.08C23.392 25.5733 23.4787 27.3133 23.652 28.3C24.332 28.38 24.972 28.5 25.572 28.66L25.492 29.16C24.7853 29.0533 24.072 29 23.352 29C22.6453 29 22.072 29.02 21.632 29.06C21.632 28.62 21.1987 27.64 20.332 26.12C19.4653 24.6 17.892 22.06 15.612 18.5L15.532 18.54V21.9C15.532 25.1667 15.7787 27.3 16.272 28.3C17.0053 28.3667 17.732 28.4933 18.452 28.68L18.412 29.16C17.4253 29.0533 16.352 29 15.192 29C14.0453 29 13.1187 29.0533 12.412 29.16L12.332 28.66C12.932 28.4733 13.572 28.3333 14.252 28.24C14.3987 27.1467 14.472 25.4267 14.472 23.08V21.9C14.472 20.02 14.392 18.4133 14.232 17.08C12.6587 17.08 11.652 17.2933 11.212 17.72C11.1187 17.9067 11.072 18.2 11.072 18.6C11.072 19 11.1387 19.2733 11.272 19.42L11.252 19.56C10.9187 19.76 10.5853 20.04 10.252 20.4C10.092 20.3867 9.96534 20.32 9.87201 20.2C9.76534 20.08 9.71201 19.94 9.71201 19.78C9.71201 19.1267 10.1053 18.3467 10.892 17.44C11.6787 16.5333 12.412 15.96 13.092 15.72C13.252 15.7333 13.6987 15.78 14.432 15.86C15.1787 15.94 15.792 15.98 16.272 15.98C16.752 15.98 17.1987 15.94 17.612 15.86L17.692 16.36C17.1453 16.5867 16.872 16.8067 16.872 17.02C16.9387 17.38 17.3187 18.14 18.012 19.3C18.7053 20.4467 20.1187 22.68 22.252 26L22.332 25.96V23.08ZM33.2931 16.1C34.3464 16.1 35.0731 15.8933 35.4731 15.48L35.8531 15.68C35.2798 16.72 34.9464 17.9333 34.8531 19.32H34.3531C34.2331 18.7467 34.1731 18.02 34.1731 17.14C33.8264 17.2467 33.3931 17.3 32.8731 17.3C32.3531 17.3 31.4931 17.2467 30.2931 17.14C30.1864 18.1267 30.1331 19.64 30.1331 21.68C30.7064 21.7867 31.2664 21.84 31.8131 21.84C32.8531 21.84 33.5131 21.5533 33.7931 20.98L34.1931 21.06C34.0731 21.4867 34.0131 22 34.0131 22.6C34.0131 23.1867 34.0531 23.7667 34.1331 24.34L33.6731 24.42C33.4731 23.9133 33.3398 23.32 33.2731 22.64C32.7798 22.6 32.2664 22.58 31.7331 22.58C31.1998 22.58 30.6664 22.6133 30.1331 22.68C30.1464 25.4 30.2331 27.2733 30.3931 28.3C31.0598 28.3667 31.7931 28.4933 32.5931 28.68L32.5331 29.16C31.5464 29.0533 30.4731 29 29.3131 29C28.1664 29 27.2398 29.0533 26.5331 29.16L26.4531 28.66C27.0531 28.4733 27.6931 28.3333 28.3731 28.24C28.5198 27.1467 28.5931 25.4267 28.5931 23.08V21.9C28.5931 20.58 28.5131 18.96 28.3531 17.04H28.3131C26.7398 17.04 25.7331 17.2533 25.2931 17.68C25.1998 17.8667 25.1531 18.16 25.1531 18.56C25.1531 18.96 25.2198 19.2333 25.3531 19.38L25.3331 19.52C24.9998 19.72 24.6664 20 24.3331 20.36C24.1731 20.3467 24.0464 20.28 23.9531 20.16C23.8464 20.04 23.7931 19.9 23.7931 19.74C23.7931 19.0867 24.1864 18.3067 24.9731 17.4C25.7598 16.4933 26.4931 15.92 27.1731 15.68C28.1064 15.72 29.1931 15.8 30.4331 15.92C31.6864 16.04 32.6398 16.1 33.2931 16.1ZM38.2787 15.68C39.1987 15.72 40.2521 15.8 41.4387 15.92C42.6387 16.04 43.4921 16.1 43.9987 16.1C44.5054 16.1 44.8854 16.06 45.1387 15.98C45.7521 15.3933 46.1854 14.9467 46.4387 14.64L46.7587 14.88C46.0521 15.8 45.6254 16.76 45.4787 17.76C44.1587 17.4 42.9521 17.18 41.8587 17.1C41.7654 18.5533 41.7187 20.4667 41.7187 22.84C41.7187 25.2 41.8054 27.02 41.9787 28.3C42.6454 28.3667 43.3787 28.4933 44.1787 28.68L44.1187 29.16C43.1321 29.0533 42.0587 29 40.8987 29C39.7521 29 38.8254 29.0533 38.1187 29.16L38.0387 28.66C38.6387 28.4733 39.2787 28.3333 39.9587 28.24C40.1054 27.1467 40.1787 25.4267 40.1787 23.08V21.9C40.1787 20.58 40.0987 18.96 39.9387 17.04H39.4187C37.8454 17.04 36.8387 17.2533 36.3987 17.68C36.3054 17.8667 36.2587 18.16 36.2587 18.56C36.2587 18.96 36.3254 19.2333 36.4587 19.38L36.4387 19.52C36.1054 19.72 35.7721 20 35.4387 20.36C35.2787 20.3467 35.1521 20.28 35.0587 20.16C34.9521 20.04 34.8987 19.9 34.8987 19.74C34.8987 19.0867 35.2921 18.3067 36.0787 17.4C36.8654 16.4933 37.5987 15.92 38.2787 15.68ZM49.1298 29.24C48.7698 29.24 48.4565 29.1067 48.1898 28.84C47.9232 28.5733 47.7898 28.26 47.7898 27.9C47.7898 27.4867 47.9098 27.16 48.1498 26.92C48.3898 26.68 48.7165 26.56 49.1298 26.56C49.4765 26.56 49.7832 26.6933 50.0498 26.96C50.3298 27.2267 50.4698 27.54 50.4698 27.9C50.4698 28.3 50.3432 28.6267 50.0898 28.88C49.8365 29.12 49.5165 29.24 49.1298 29.24ZM55.8259 26.64C55.8259 27.2933 55.9059 27.78 56.0659 28.1C55.9859 28.3133 55.7592 28.52 55.3859 28.72C55.0259 28.9067 54.6192 29 54.1659 29C53.7259 29 53.3792 28.8667 53.1259 28.6C52.8859 28.32 52.7659 27.9467 52.7659 27.48V22.4C52.7659 21.2933 52.6592 20.3733 52.4459 19.64L52.3259 19.26C52.3792 19.1933 52.4526 19.1067 52.5459 19C52.6526 18.8933 52.8726 18.7533 53.2059 18.58C53.5392 18.4067 53.8859 18.32 54.2459 18.32C55.0192 18.32 55.5059 18.7733 55.7059 19.68C56.1592 18.8267 56.9259 18.4 58.0059 18.4C59.0992 18.4 59.8659 18.8933 60.3059 19.88C60.4659 19.4667 60.7459 19.12 61.1459 18.84C61.5459 18.5467 62.0926 18.4 62.7859 18.4C63.4792 18.4 64.0659 18.6667 64.5459 19.2C65.0259 19.72 65.2659 20.44 65.2659 21.36V26.76L65.6859 27.78C65.6326 27.8733 65.5592 27.9867 65.4659 28.12C65.3726 28.2533 65.1659 28.4333 64.8459 28.66C64.5392 28.8867 64.2059 29 63.8459 29C62.7392 29 62.1859 28.2133 62.1859 26.64V22.78C62.1859 22.0733 62.0659 21.5933 61.8259 21.34C61.5859 21.0867 61.1659 20.9467 60.5659 20.92L60.5859 21.36V26.64C60.5859 27.2667 60.6659 27.7533 60.8259 28.1C60.7859 28.1667 60.7259 28.2533 60.6459 28.36C60.5792 28.4533 60.3859 28.5867 60.0659 28.76C59.7459 28.92 59.3592 29 58.9059 29C58.4659 29 58.1192 28.86 57.8659 28.58C57.6259 28.3 57.5059 27.9333 57.5059 27.48V22.78C57.5059 22.0733 57.3859 21.5933 57.1459 21.34C56.9059 21.0867 56.4659 20.9467 55.8259 20.92V26.64ZM70.5373 22.98C70.5373 22.0333 70.0107 21.56 68.9573 21.56C68.3573 21.56 67.7307 21.7533 67.0773 22.14C66.864 21.9267 66.7573 21.6667 66.7573 21.36C66.7573 21.04 66.844 20.7133 67.0173 20.38C67.204 20.0467 67.444 19.7333 67.7373 19.44C68.044 19.1333 68.4307 18.8867 68.8973 18.7C69.364 18.5 69.8573 18.4 70.3773 18.4C71.4173 18.4 72.2173 18.7267 72.7773 19.38C73.3373 20.0333 73.6173 20.9667 73.6173 22.18V26.76L74.0573 27.78C74.004 27.8733 73.9307 27.9867 73.8373 28.12C73.744 28.2533 73.5373 28.4333 73.2173 28.66C72.8973 28.8867 72.564 29 72.2173 29C71.3507 29 70.824 28.52 70.6373 27.56C70.1973 28.52 69.584 29 68.7973 29C68.024 29 67.4307 28.76 67.0173 28.28C66.6173 27.7867 66.4173 27.1467 66.4173 26.36C66.4173 24.32 67.7907 23.24 70.5373 23.12V22.98ZM68.9173 25.62C68.9173 26.14 69.0973 26.4733 69.4573 26.62C69.5373 26.66 69.624 26.68 69.7173 26.68C69.984 26.68 70.2573 26.5267 70.5373 26.22V24.02C69.4573 24.2733 68.9173 24.8067 68.9173 25.62ZM76.5153 29C75.422 29 74.8753 28.2133 74.8753 26.64V20.64L74.4353 19.26C74.4886 19.1933 74.562 19.1067 74.6553 19C74.762 18.8933 74.982 18.7533 75.3153 18.58C75.6486 18.4067 75.9953 18.32 76.3553 18.32C77.1953 18.32 77.702 18.8533 77.8753 19.92C78.5286 18.9067 79.302 18.4 80.1953 18.4C81.102 18.4 81.5553 18.8267 81.5553 19.68C81.5553 20.4267 81.3953 21.04 81.0753 21.52C80.782 21.9467 80.4753 22.2867 80.1553 22.54C79.5286 21.98 78.7886 21.62 77.9353 21.46V26.76L78.3753 27.78C78.322 27.8733 78.2486 27.9867 78.1553 28.12C78.062 28.2533 77.8553 28.4333 77.5353 28.66C77.2153 28.8867 76.8753 29 76.5153 29ZM85.2851 26.64C85.2851 27.2933 85.3651 27.78 85.5251 28.1C85.4451 28.3133 85.2185 28.52 84.8451 28.72C84.4851 28.9067 84.0785 29 83.6251 29C83.1851 29 82.8385 28.8667 82.5851 28.6C82.3451 28.32 82.2251 27.9467 82.2251 27.48V19.04C82.2251 17.8933 82.1118 16.9733 81.8851 16.28L81.7651 15.9C81.8185 15.8333 81.8918 15.7467 81.9851 15.64C82.0918 15.5333 82.3118 15.3933 82.6451 15.22C82.9918 15.0333 83.3451 14.94 83.7051 14.94C84.7585 14.94 85.2851 15.7733 85.2851 17.44V23.68C85.5651 23.4933 85.8518 23.3733 86.1451 23.32C86.5185 22.1733 86.8585 20.6267 87.1651 18.68C87.5518 18.5067 88.0785 18.42 88.7451 18.42C89.6518 18.42 90.1051 18.8933 90.1051 19.84C90.1051 20.3467 89.9118 21.06 89.5251 21.98C89.1385 22.9 88.6585 23.62 88.0851 24.14L89.2851 26C89.6718 26.56 89.9651 26.9733 90.1651 27.24L90.4851 27.66C90.2851 28.2467 89.8985 28.6467 89.3251 28.86C89.0851 28.9533 88.8185 29 88.5251 29C87.8185 29 87.2985 28.6733 86.9651 28.02L85.2851 24.84V26.64ZM97.9262 26.14C98.0729 26.2867 98.1462 26.48 98.1462 26.72C98.1462 26.96 98.0796 27.2067 97.9462 27.46C97.8262 27.7 97.6396 27.94 97.3862 28.18C97.1462 28.4067 96.7996 28.6 96.3462 28.76C95.8929 28.92 95.3929 29 94.8462 29C94.3129 29 93.8329 28.9267 93.4062 28.78C92.9796 28.62 92.5729 28.3733 92.1862 28.04C91.3462 27.2933 90.9262 26.0733 90.9262 24.38C90.9262 22.6867 91.2129 21.4333 91.7862 20.62C92.3596 19.7933 93.0129 19.34 93.7462 19.26C94.2796 18.6867 94.9196 18.4 95.6662 18.4C96.4262 18.4 97.0396 18.6733 97.5062 19.22C97.9862 19.7667 98.2262 20.5133 98.2262 21.46C98.2262 22.5667 97.8196 23.44 97.0062 24.08C96.3396 24.6133 95.5396 25.02 94.6062 25.3C95.0729 25.9133 95.8462 26.22 96.9262 26.22C97.2329 26.22 97.5662 26.1933 97.9262 26.14ZM95.4462 22.44C95.4462 21.6267 94.9462 21.18 93.9462 21.1V22.9C93.9462 23.5 93.9996 23.98 94.1062 24.34C94.9996 23.8467 95.4462 23.2133 95.4462 22.44ZM104.452 18.84C104.585 19.1733 104.652 19.5267 104.652 19.9C104.652 20.26 104.638 20.5267 104.612 20.7C104.598 20.86 104.518 21.04 104.372 21.24C104.225 21.4267 104.032 21.52 103.792 21.52C103.552 21.52 103.205 21.5067 102.752 21.48V24.42C102.752 25.7267 103.318 26.5933 104.452 27.02C104.452 27.5133 104.278 27.9667 103.932 28.38C103.598 28.7933 103.138 29 102.552 29C101.698 29 101.012 28.6867 100.492 28.06C99.9717 27.4333 99.7117 26.62 99.7117 25.62V21.26C99.365 21.1667 99.0517 21.0533 98.7717 20.92L98.7517 20.68C98.7517 19.7733 99.065 19.1667 99.6917 18.86C99.6384 17.94 99.525 17.2133 99.3517 16.68L99.2717 16.4C99.325 16.3333 99.3984 16.2467 99.4917 16.14C99.5984 16.0333 99.8184 15.8933 100.152 15.72C100.485 15.5467 100.832 15.46 101.192 15.46C102.232 15.46 102.752 16.2933 102.752 17.96V18.78C103.178 18.82 103.745 18.84 104.452 18.84Z" fill="white"/>
<defs>
<linearGradient id="paint0_linear_7_2" x1="-17.5428" y1="11.9215" x2="123.377" y2="20.513" gradientUnits="userSpaceOnUse">
<stop offset="0.0102274" stop-color="#ED1C24"/>
<stop offset="1" stop-color="#ED1C24" stop-opacity="0.29"/>
</linearGradient>
</defs>
</svg>
